<?xml version="1.0" encoding="utf-8"?>
<!-- Generator: Adobe Illustrator 17.0.0, SVG Export Plug-In . SVG Version: 6.00 Build 0)  -->
<!DOCTYPE svg PUBLIC "-//W3C//DTD SVG 1.1//EN" "http://www.w3.org/Graphics/SVG/1.1/DTD/svg11.dtd">
<svg version="1.1" id="Layer_1" xmlns="http://www.w3.org/2000/svg" xmlns:xlink="http://www.w3.org/1999/xlink" x="0px" y="0px"
	 width="48px" height="30px" viewBox="0 0 48 30" enable-background="new 0 0 48 30" xml:space="preserve">
<g>
	<g>
		<path fill="#154B7D" d="M6.515,20.77c0,0.161-0.057,0.749,0.221,0.749c0.308,0,0.557-0.515,0.69-0.515
			c0.103,0,0.088,0.119,0.074,0.178l-0.015,0.19c-0.014,0.192-0.074,0.192-0.248,0.25l-1.189,0.455
			c-0.035,0.02-0.244,0.1-0.311,0.08c-0.154-0.047-0.143-0.271-0.158-0.359c0-0.059,0-0.47-0.147-0.47
			c-0.22,0-1.072,0.984-2.26,0.984c-1.864,0-3.17-1.629-3.17-3.39c0-0.925,0.366-1.732,1.027-2.362
			c0.661-0.632,1.571-1.1,2.51-1.056c0.543,0.029,1.086,0.117,1.57,0.307c0.073,0.03,0.205,0.089,0.279,0.089
			c0.176,0,0.117-0.455,0.117-0.544v-1.393c0-0.543,0.132-1.189-0.573-1.189c-0.132,0-0.381,0.045-0.381-0.147
			c0-0.103,0.117-0.148,0.205-0.161c0.411-0.073,0.969-0.221,1.321-0.455c0.073-0.057,0.205-0.162,0.308-0.162
			c0.145,0,0.131,0.118,0.131,0.236V20.77z M5.503,17.6c0-0.454,0.029-1.011-0.352-1.365c-0.353-0.337-1.028-0.513-1.511-0.47
			c-1.601,0.147-2.554,1.468-2.554,2.936c0,1.467,0.91,2.979,2.539,2.979c0.603,0,1.321-0.205,1.73-0.691
			c0.191-0.234,0.148-0.438,0.148-0.733V17.6z"/>
		<path fill="#154B7D" d="M6.515,20.77c0,0.161-0.057,0.749,0.221,0.749c0.308,0,0.557-0.515,0.69-0.515
			c0.103,0,0.088,0.119,0.074,0.178l-0.015,0.19c-0.014,0.192-0.074,0.192-0.248,0.25l-1.189,0.455
			c-0.073,0.045-0.203,0.073-0.29,0.073c-0.161,0-0.165-0.265-0.179-0.352c0-0.059,0-0.47-0.147-0.47
			c-0.22,0-1.072,0.984-2.26,0.984c-1.864,0-3.17-1.629-3.17-3.39c0-0.925,0.366-1.732,1.027-2.362
			c0.661-0.632,1.571-1.1,2.51-1.056c0.543,0.029,1.086,0.117,1.57,0.307c0.073,0.03,0.205,0.089,0.279,0.089
			c0.176,0,0.117-0.455,0.117-0.544v-1.393c0-0.543,0.132-1.189-0.573-1.189c-0.132,0-0.381,0.045-0.381-0.147
			c0-0.103,0.117-0.148,0.205-0.161c0.411-0.073,0.969-0.221,1.321-0.455c0.073-0.057,0.205-0.162,0.308-0.162
			c0.145,0,0.131,0.118,0.131,0.236V20.77z M5.503,17.6c0-0.454,0.029-1.011-0.352-1.365c-0.353-0.337-1.028-0.513-1.511-0.47
			c-1.601,0.147-2.554,1.468-2.554,2.936c0,1.467,0.91,2.979,2.539,2.979c0.603,0,1.321-0.205,1.73-0.691
			c0.191-0.234,0.148-0.438,0.148-0.733V17.6z"/>
		<path fill="#154B7D" d="M14.499,20.373c0,0.573-0.116,1.028,0.587,0.968l0.191-0.014c0.089,0,0.192,0.014,0.192,0.117
			c0,0.132-0.22,0.162-0.308,0.191c-0.514,0.148-1.042,0.308-1.468,0.632c-0.029,0.015-0.117,0.087-0.162,0.087
			c-0.074,0-0.074-0.043-0.074-0.117v-0.353c0-0.073,0.074-0.601-0.117-0.601c-0.219,0-0.909,1.027-2.244,1.027
			c-0.72,0-1.307-0.293-1.733-0.851c-0.469-0.602-0.441-1.35-0.441-2.07v-2.23c0-0.616,0.148-1.174-0.659-1.174
			c-0.132,0-0.397,0-0.397-0.205c0-0.118,0.073-0.089,0.191-0.089H9.7c0.309,0,0.236,0.308,0.236,0.53v3.168
			c0,0.485,0,1.219,0.263,1.645c0.294,0.484,0.925,0.675,1.468,0.675c0.631,0,1.16-0.206,1.571-0.662
			c0.307-0.336,0.249-0.675,0.249-1.086V17.16c0-0.616,0.146-1.174-0.646-1.174c-0.132,0-0.41,0-0.41-0.191
			c0-0.132,0.087-0.103,0.205-0.103h1.703c0.235,0,0.16,0.206,0.16,0.366V20.373z"/>
		<path fill="#154B7D" d="M14.499,20.373c0,0.573-0.116,1.028,0.587,0.968l0.191-0.014c0.089,0,0.192,0.014,0.192,0.117
			c0,0.132-0.22,0.162-0.308,0.191c-0.514,0.148-1.042,0.308-1.468,0.632c-0.029,0.015-0.117,0.087-0.162,0.087
			c-0.074,0-0.074-0.043-0.074-0.117v-0.353c0-0.073,0.074-0.601-0.117-0.601c-0.219,0-0.909,1.027-2.244,1.027
			c-0.72,0-1.307-0.293-1.733-0.851c-0.469-0.602-0.441-1.35-0.441-2.07v-2.23c0-0.616,0.148-1.174-0.659-1.174
			c-0.132,0-0.397,0-0.397-0.205c0-0.118,0.073-0.089,0.191-0.089H9.7c0.309,0,0.236,0.308,0.236,0.53v3.168
			c0,0.485,0,1.219,0.263,1.645c0.294,0.484,0.925,0.675,1.468,0.675c0.631,0,1.16-0.206,1.571-0.662
			c0.307-0.336,0.249-0.675,0.249-1.086V17.16c0-0.616,0.146-1.174-0.646-1.174c-0.132,0-0.41,0-0.41-0.191
			c0-0.132,0.087-0.103,0.205-0.103h1.703c0.235,0,0.16,0.206,0.16,0.366V20.373z"/>
		<path fill="#154B7D" d="M17.316,17.879c0-0.206,0.015-0.777-0.147-0.938c-0.087-0.103-0.308-0.118-0.425-0.118h-0.191
			c-0.088,0-0.176-0.031-0.176-0.118c0-0.175,0.206-0.206,0.338-0.25c0.351-0.103,0.983-0.484,1.217-0.763
			c0.075-0.073,0.148-0.19,0.266-0.19c0.147,0,0.131,0.131,0.131,0.234v0.968c0.25,0,1.072-1.203,2.407-1.203
			c0.733,0,1.321,0.264,1.731,0.792c0.469,0.601,0.44,1.32,0.44,2.026v2.318c0,0.631-0.131,1.13,0.661,1.204
			c0.147,0.015,0.411,0,0.411,0.19c0,0.118-0.074,0.161-0.177,0.161c-0.47,0-0.939-0.056-1.379-0.056
			c-0.469,0-0.939,0.056-1.394,0.056c-0.104,0-0.206-0.028-0.206-0.147c0-0.219,0.249-0.189,0.41-0.204
			c0.793-0.074,0.662-0.573,0.662-1.204v-2.333c0-0.471,0-1.057-0.264-1.454c-0.279-0.424-0.808-0.66-1.379-0.66
			c-0.557,0-1.071,0.236-1.452,0.631c-0.426,0.44-0.471,0.763-0.471,1.349v2.466c0,0.631-0.131,1.13,0.661,1.204
			c0.147,0.015,0.412,0,0.412,0.19c0,0.118-0.074,0.161-0.176,0.161c-0.47,0-0.94-0.056-1.38-0.056c-0.47,0-0.939,0.056-1.394,0.056
			c-0.103,0-0.206-0.028-0.206-0.147c0-0.219,0.25-0.189,0.411-0.204c0.794-0.074,0.659-0.573,0.659-1.204V17.879z"/>
		<path fill="#154B7D" d="M17.316,17.879c0-0.206,0.015-0.777-0.147-0.938c-0.087-0.103-0.308-0.118-0.425-0.118h-0.191
			c-0.088,0-0.176-0.031-0.176-0.118c0-0.175,0.206-0.206,0.338-0.25c0.351-0.103,0.983-0.484,1.217-0.763
			c0.075-0.073,0.148-0.19,0.266-0.19c0.147,0,0.131,0.131,0.131,0.234v0.968c0.25,0,1.072-1.203,2.407-1.203
			c0.733,0,1.321,0.264,1.731,0.792c0.469,0.601,0.44,1.32,0.44,2.026v2.318c0,0.631-0.131,1.13,0.661,1.204
			c0.147,0.015,0.411,0,0.411,0.19c0,0.118-0.074,0.161-0.177,0.161c-0.47,0-0.939-0.056-1.379-0.056
			c-0.469,0-0.939,0.056-1.394,0.056c-0.104,0-0.206-0.028-0.206-0.147c0-0.219,0.249-0.189,0.41-0.204
			c0.793-0.074,0.662-0.573,0.662-1.204v-2.333c0-0.471,0-1.057-0.264-1.454c-0.279-0.424-0.808-0.66-1.379-0.66
			c-0.557,0-1.071,0.236-1.452,0.631c-0.426,0.44-0.471,0.763-0.471,1.349v2.466c0,0.631-0.131,1.13,0.661,1.204
			c0.147,0.015,0.412,0,0.412,0.19c0,0.118-0.074,0.161-0.176,0.161c-0.47,0-0.94-0.056-1.38-0.056c-0.47,0-0.939,0.056-1.394,0.056
			c-0.103,0-0.206-0.028-0.206-0.147c0-0.219,0.25-0.189,0.411-0.204c0.794-0.074,0.659-0.573,0.659-1.204V17.879z"/>
		<path fill="#154B7D" d="M29.942,17.379c-0.469,0-0.734-1.614-1.922-1.614c-0.514,0-1.1,0.279-1.483,0.601
			c-0.675,0.587-1.056,1.482-1.056,2.377c0,1.497,1.102,3.023,2.744,3.023c0.632,0,1.232-0.205,1.688-0.645
			c0.044-0.045,0.147-0.176,0.22-0.176c0.06,0,0.103,0.057,0.103,0.118c0,0.145-0.338,0.44-0.441,0.528
			c-0.601,0.484-1.336,0.719-2.127,0.719c-1.807,0-3.288-1.496-3.288-3.273c0-1.981,1.849-3.536,3.816-3.536
			c0.557,0,1.336,0.161,1.805,0.484c0.191,0.132,0.117,0.455,0.117,0.645C30.118,16.749,30.206,17.379,29.942,17.379"/>
		<path fill="#154B7D" d="M29.942,17.379c-0.469,0-0.734-1.614-1.922-1.614c-0.514,0-1.1,0.279-1.483,0.601
			c-0.675,0.587-1.056,1.482-1.056,2.377c0,1.497,1.102,3.023,2.744,3.023c0.632,0,1.232-0.205,1.688-0.645
			c0.044-0.045,0.147-0.176,0.22-0.176c0.06,0,0.103,0.057,0.103,0.118c0,0.145-0.338,0.44-0.441,0.528
			c-0.601,0.484-1.336,0.719-2.127,0.719c-1.807,0-3.288-1.496-3.288-3.273c0-1.981,1.849-3.536,3.816-3.536
			c0.557,0,1.336,0.161,1.805,0.484c0.191,0.132,0.117,0.455,0.117,0.645C30.118,16.749,30.206,17.379,29.942,17.379"/>
		<path fill="#154B7D" d="M34.447,18.569c0.529-0.249,0.543-0.264,0.543-0.822v-0.645c0-0.72-0.029-1.321-0.938-1.321
			c-0.896,0-1.35,0.484-1.688,1.232c-0.103,0.22-0.176,0.425-0.412,0.528c-0.147,0.073-0.455,0.191-0.631,0.191
			c-0.117,0-0.19-0.029-0.19-0.176c0-0.381,0.338-0.807,0.615-1.041c0.69-0.617,1.688-1.013,2.628-1.013
			c0.455,0,0.997,0.073,1.335,0.381c0.353,0.294,0.294,0.675,0.294,1.072v3.463c0,0.324-0.015,1.175,0.513,1.175
			c0.367,0,0.528-0.368,0.66-0.368c0.059,0,0.103,0.059,0.103,0.117c0,0.163-0.25,0.369-0.353,0.456
			c-0.292,0.206-0.661,0.425-1.042,0.425c-0.718,0-0.792-1.027-0.998-1.027c-0.132,0-1.085,1.115-2.363,1.115
			c-0.689,0-1.378-0.426-1.378-1.159c0-1.042,1.364-1.659,2.171-2.054L34.447,18.569z M33.39,19.39
			c-0.572,0.294-1.144,0.676-1.144,1.38c0,0.571,0.468,0.865,1.012,0.865c0.514,0,1.013-0.234,1.365-0.587
			c0.353-0.367,0.368-0.615,0.368-1.1v-0.881c0-0.057,0.045-0.411-0.103-0.411c-0.045,0-0.117,0.045-0.161,0.059L33.39,19.39z"/>
		<path fill="#154B7D" d="M34.447,18.569c0.529-0.249,0.543-0.264,0.543-0.822v-0.645c0-0.72-0.029-1.321-0.938-1.321
			c-0.896,0-1.35,0.484-1.688,1.232c-0.103,0.22-0.176,0.425-0.412,0.528c-0.147,0.073-0.455,0.191-0.631,0.191
			c-0.117,0-0.19-0.029-0.19-0.176c0-0.381,0.338-0.807,0.615-1.041c0.69-0.617,1.688-1.013,2.628-1.013
			c0.455,0,0.997,0.073,1.335,0.381c0.353,0.294,0.294,0.675,0.294,1.072v3.463c0,0.324-0.015,1.175,0.513,1.175
			c0.367,0,0.528-0.368,0.66-0.368c0.059,0,0.103,0.059,0.103,0.117c0,0.163-0.25,0.369-0.353,0.456
			c-0.292,0.206-0.661,0.425-1.042,0.425c-0.718,0-0.792-1.027-0.998-1.027c-0.132,0-1.085,1.115-2.363,1.115
			c-0.689,0-1.378-0.426-1.378-1.159c0-1.042,1.364-1.659,2.171-2.054L34.447,18.569z M33.39,19.39
			c-0.572,0.294-1.144,0.676-1.144,1.38c0,0.571,0.468,0.865,1.012,0.865c0.514,0,1.013-0.234,1.365-0.587
			c0.353-0.367,0.368-0.615,0.368-1.1v-0.881c0-0.057,0.045-0.411-0.103-0.411c-0.045,0-0.117,0.045-0.161,0.059L33.39,19.39z"/>
		<path fill="#154B7D" d="M39.055,17.879c0-0.206,0.015-0.777-0.145-0.938c-0.089-0.103-0.309-0.118-0.427-0.118h-0.191
			c-0.088,0-0.176-0.031-0.176-0.118c0-0.175,0.206-0.206,0.339-0.25c0.351-0.103,0.982-0.484,1.218-0.763
			c0.071-0.073,0.147-0.19,0.263-0.19c0.147,0,0.133,0.131,0.133,0.234v0.968c0.248,0,1.069-1.203,2.405-1.203
			c0.734,0,1.321,0.264,1.732,0.792c0.47,0.601,0.441,1.32,0.441,2.026v2.318c0,0.631-0.131,1.13,0.66,1.204
			c0.147,0.015,0.412,0,0.412,0.19c0,0.118-0.074,0.161-0.177,0.161c-0.468,0-0.938-0.056-1.379-0.056
			c-0.47,0-0.939,0.056-1.394,0.056c-0.102,0-0.207-0.028-0.207-0.147c0-0.219,0.251-0.189,0.411-0.204
			c0.793-0.074,0.661-0.573,0.661-1.204v-2.333c0-0.471,0-1.057-0.264-1.454c-0.279-0.424-0.809-0.66-1.38-0.66
			c-0.557,0-1.071,0.236-1.452,0.631c-0.426,0.44-0.469,0.763-0.469,1.349v2.466c0,0.631-0.133,1.13,0.659,1.204
			c0.147,0.015,0.41,0,0.41,0.19c0,0.118-0.073,0.161-0.175,0.161c-0.469,0-0.94-0.056-1.38-0.056c-0.47,0-0.939,0.056-1.394,0.056
			c-0.103,0-0.205-0.028-0.205-0.147c0-0.219,0.249-0.189,0.41-0.204c0.792-0.074,0.66-0.573,0.66-1.204V17.879z"/>
		<path fill="#154B7D" d="M39.055,17.879c0-0.206,0.015-0.777-0.145-0.938c-0.089-0.103-0.309-0.118-0.427-0.118h-0.191
			c-0.088,0-0.176-0.031-0.176-0.118c0-0.175,0.206-0.206,0.339-0.25c0.351-0.103,0.982-0.484,1.218-0.763
			c0.071-0.073,0.147-0.19,0.263-0.19c0.147,0,0.133,0.131,0.133,0.234v0.968c0.248,0,1.069-1.203,2.405-1.203
			c0.734,0,1.321,0.264,1.732,0.792c0.47,0.601,0.441,1.32,0.441,2.026v2.318c0,0.631-0.131,1.13,0.66,1.204
			c0.147,0.015,0.412,0,0.412,0.19c0,0.118-0.074,0.161-0.177,0.161c-0.468,0-0.938-0.056-1.379-0.056
			c-0.47,0-0.939,0.056-1.394,0.056c-0.102,0-0.207-0.028-0.207-0.147c0-0.219,0.251-0.189,0.411-0.204
			c0.793-0.074,0.661-0.573,0.661-1.204v-2.333c0-0.471,0-1.057-0.264-1.454c-0.279-0.424-0.809-0.66-1.38-0.66
			c-0.557,0-1.071,0.236-1.452,0.631c-0.426,0.44-0.469,0.763-0.469,1.349v2.466c0,0.631-0.133,1.13,0.659,1.204
			c0.147,0.015,0.41,0,0.41,0.19c0,0.118-0.073,0.161-0.175,0.161c-0.469,0-0.94-0.056-1.38-0.056c-0.47,0-0.939,0.056-1.394,0.056
			c-0.103,0-0.205-0.028-0.205-0.147c0-0.219,0.249-0.189,0.41-0.204c0.792-0.074,0.66-0.573,0.66-1.204V17.879z"/>
		<path fill="#154B7D" d="M45.845,15.611c0,0.338-0.274,0.608-0.608,0.608c-0.338,0-0.611-0.271-0.611-0.608
			c0-0.34,0.276-0.61,0.611-0.61C45.568,15.001,45.845,15.271,45.845,15.611 M44.743,15.611c0,0.272,0.221,0.492,0.493,0.492
			c0.27,0,0.49-0.22,0.49-0.492c0-0.274-0.222-0.492-0.49-0.492C44.967,15.119,44.743,15.337,44.743,15.611 M45.36,15.939
			l-0.053-0.103c-0.083-0.162-0.129-0.162-0.191-0.162h-0.025v0.266h-0.132v-0.648h0.23c0.115,0.002,0.179,0.002,0.228,0.039
			c0.046,0.035,0.069,0.09,0.069,0.144c0,0.071-0.043,0.164-0.175,0.183c0.06,0.025,0.077,0.052,0.138,0.154l0.076,0.129H45.36z
			 M45.091,15.572h0.052c0.033,0,0.113,0,0.137-0.008c0.055-0.015,0.064-0.059,0.064-0.082c0-0.034-0.018-0.057-0.038-0.071
			c-0.03-0.021-0.057-0.019-0.164-0.019h-0.052V15.572z"/>
		<path fill="#A5A7AA" d="M10.625,28.558l0.772-0.118c0.043,0.302,0.164,0.533,0.36,0.694c0.198,0.161,0.473,0.241,0.827,0.241
			c0.356,0,0.621-0.071,0.795-0.215c0.172-0.142,0.258-0.309,0.258-0.501c0-0.172-0.076-0.308-0.228-0.407
			c-0.106-0.067-0.37-0.154-0.794-0.258c-0.569-0.141-0.964-0.263-1.185-0.366c-0.22-0.103-0.387-0.245-0.502-0.427
			c-0.114-0.182-0.171-0.382-0.171-0.603c0-0.2,0.047-0.386,0.141-0.556c0.094-0.171,0.221-0.312,0.382-0.425
			c0.121-0.088,0.286-0.162,0.495-0.222c0.209-0.061,0.433-0.091,0.672-0.091c0.36,0,0.676,0.05,0.948,0.153
			c0.272,0.101,0.473,0.239,0.602,0.412c0.13,0.174,0.219,0.406,0.268,0.697l-0.76,0.101c-0.035-0.232-0.134-0.413-0.3-0.543
			c-0.165-0.13-0.399-0.195-0.701-0.195c-0.356,0-0.611,0.057-0.763,0.173c-0.153,0.116-0.229,0.252-0.229,0.407
			c0,0.098,0.032,0.188,0.095,0.267c0.063,0.081,0.162,0.149,0.298,0.203c0.077,0.029,0.305,0.093,0.685,0.195
			c0.549,0.143,0.932,0.261,1.15,0.353c0.217,0.091,0.387,0.225,0.511,0.399c0.124,0.176,0.186,0.393,0.186,0.652
			c0,0.254-0.075,0.493-0.226,0.716c-0.151,0.225-0.37,0.398-0.655,0.521c-0.285,0.124-0.608,0.183-0.968,0.183
			c-0.597,0-1.05-0.121-1.363-0.363C10.912,29.395,10.712,29.035,10.625,28.558"/>
		<path fill="#A5A7AA" d="M15.072,27.654c0-0.831,0.236-1.448,0.708-1.848c0.394-0.333,0.875-0.499,1.442-0.499
			c0.63,0,1.145,0.202,1.546,0.606c0.4,0.406,0.6,0.965,0.6,1.678c0,0.578-0.089,1.033-0.266,1.363
			c-0.177,0.332-0.435,0.589-0.773,0.773c-0.338,0.183-0.707,0.274-1.107,0.274c-0.641,0-1.161-0.2-1.557-0.604
			C15.269,28.994,15.072,28.412,15.072,27.654 M15.872,27.655c0,0.575,0.128,1.006,0.384,1.292c0.256,0.285,0.578,0.429,0.966,0.429
			c0.385,0,0.706-0.144,0.961-0.431c0.256-0.287,0.385-0.726,0.385-1.315c0-0.556-0.129-0.976-0.386-1.262
			c-0.257-0.287-0.577-0.43-0.96-0.43c-0.388,0-0.71,0.142-0.966,0.428C16,26.651,15.872,27.08,15.872,27.655"/>
		<rect x="20.262" y="23.701" fill="#A5A7AA" width="0.778" height="6.199"/>
		<path fill="#A5A7AA" d="M25.25,29.9v-0.658c-0.357,0.505-0.842,0.758-1.456,0.758c-0.27,0-0.523-0.05-0.758-0.151
			c-0.234-0.102-0.409-0.23-0.523-0.383c-0.113-0.154-0.193-0.342-0.239-0.564c-0.032-0.151-0.047-0.387-0.047-0.712v-2.783h0.777
			V27.9c0,0.399,0.016,0.666,0.047,0.805c0.049,0.2,0.152,0.357,0.312,0.471c0.158,0.114,0.354,0.171,0.587,0.171
			c0.233,0,0.453-0.058,0.658-0.175c0.204-0.117,0.349-0.277,0.434-0.478c0.084-0.202,0.128-0.495,0.128-0.878v-2.408h0.777V29.9
			H25.25z"/>
		<path fill="#A5A7AA" d="M28.863,29.222l0.115,0.672c-0.22,0.046-0.416,0.068-0.589,0.068c-0.282,0-0.502-0.043-0.658-0.132
			c-0.156-0.087-0.265-0.202-0.329-0.345c-0.063-0.141-0.094-0.442-0.094-0.898V26h-0.577v-0.593h0.577v-1.111l0.777-0.457v1.569
			h0.778V26h-0.778v2.629c0,0.217,0.014,0.358,0.04,0.42c0.028,0.062,0.072,0.111,0.134,0.148c0.062,0.037,0.15,0.055,0.264,0.055
			C28.61,29.252,28.722,29.242,28.863,29.222"/>
		<path fill="#A5A7AA" d="M29.627,23.701h0.777v0.873h-0.777V23.701z M29.627,29.9 M29.627,25.408h0.777V29.9h-0.777V25.408z"/>
		<path fill="#A5A7AA" d="M31.298,27.654c0-0.831,0.237-1.448,0.708-1.848c0.395-0.333,0.876-0.499,1.443-0.499
			c0.631,0,1.146,0.202,1.546,0.606c0.4,0.406,0.6,0.965,0.6,1.678c0,0.578-0.089,1.033-0.266,1.363
			c-0.177,0.332-0.434,0.589-0.773,0.773c-0.339,0.183-0.708,0.274-1.108,0.274c-0.641,0-1.161-0.2-1.557-0.604
			C31.496,28.994,31.298,28.412,31.298,27.654 M32.1,27.655c0,0.575,0.128,1.006,0.383,1.292c0.256,0.285,0.578,0.429,0.966,0.429
			c0.385,0,0.706-0.144,0.962-0.431c0.254-0.287,0.383-0.726,0.383-1.315c0-0.556-0.128-0.976-0.386-1.262
			c-0.257-0.287-0.577-0.43-0.96-0.43c-0.388,0-0.71,0.142-0.966,0.428C32.227,26.651,32.1,27.08,32.1,27.655"/>
		<path fill="#A5A7AA" d="M36.506,29.9v-4.492h0.698v0.639c0.336-0.494,0.824-0.74,1.46-0.74c0.277,0,0.531,0.049,0.763,0.145
			c0.232,0.098,0.406,0.225,0.521,0.383c0.115,0.158,0.196,0.345,0.242,0.562c0.03,0.142,0.043,0.389,0.043,0.74V29.9h-0.777v-2.733
			c0-0.31-0.031-0.542-0.091-0.696c-0.06-0.154-0.168-0.276-0.321-0.368c-0.154-0.091-0.335-0.137-0.543-0.137
			c-0.331,0-0.615,0.104-0.856,0.309c-0.24,0.205-0.361,0.596-0.361,1.171V29.9H36.506z"/>
		<path fill="#A5A7AA" d="M41.115,28.558l0.772-0.118c0.043,0.302,0.164,0.533,0.36,0.694c0.198,0.161,0.472,0.241,0.826,0.241
			c0.358,0,0.621-0.071,0.794-0.215c0.172-0.142,0.259-0.309,0.259-0.501c0-0.172-0.076-0.308-0.228-0.407
			c-0.107-0.067-0.37-0.154-0.794-0.258c-0.569-0.141-0.964-0.263-1.184-0.366c-0.222-0.103-0.389-0.245-0.503-0.427
			c-0.114-0.182-0.17-0.382-0.17-0.603c0-0.2,0.046-0.386,0.139-0.556c0.094-0.171,0.221-0.312,0.382-0.425
			c0.121-0.088,0.286-0.162,0.495-0.222c0.209-0.061,0.433-0.091,0.672-0.091c0.36,0,0.675,0.05,0.948,0.153
			c0.272,0.101,0.473,0.239,0.603,0.412c0.129,0.174,0.218,0.406,0.267,0.697l-0.761,0.101c-0.034-0.232-0.134-0.413-0.299-0.543
			c-0.165-0.13-0.399-0.195-0.7-0.195c-0.357,0-0.611,0.057-0.764,0.173c-0.152,0.116-0.228,0.252-0.228,0.407
			c0,0.098,0.032,0.188,0.095,0.267c0.063,0.081,0.163,0.149,0.297,0.203c0.078,0.029,0.307,0.093,0.685,0.195
			c0.55,0.143,0.933,0.261,1.15,0.353c0.218,0.091,0.389,0.225,0.512,0.399c0.124,0.176,0.186,0.393,0.186,0.652
			c0,0.254-0.076,0.493-0.227,0.716c-0.151,0.225-0.369,0.398-0.655,0.521c-0.285,0.124-0.607,0.183-0.968,0.183
			c-0.597,0-1.05-0.121-1.363-0.363C41.402,29.395,41.201,29.035,41.115,28.558"/>
	</g>
	<g>
		<path fill="#CECFD0" d="M35.196,10.628c0.231,0.235,0.344,0.505,0.337,0.811c-0.006,0.305-0.124,0.57-0.35,0.794
			c-0.226,0.223-0.495,0.334-0.804,0.333c-0.308-0.002-0.572-0.113-0.79-0.334c-0.217-0.22-0.326-0.484-0.326-0.789
			c-0.001-0.306,0.108-0.566,0.328-0.783c0.227-0.224,0.496-0.341,0.809-0.349C34.713,10.303,34.978,10.408,35.196,10.628z"/>
		<path fill="#CECFD0" d="M35.604,6.13c0.326,0.331,0.486,0.722,0.48,1.176c-0.007,0.453-0.175,0.843-0.505,1.168
			c-0.33,0.325-0.718,0.487-1.163,0.487c-0.445-0.001-0.831-0.165-1.157-0.497c-0.326-0.331-0.488-0.718-0.486-1.159
			c0.001-0.44,0.168-0.823,0.498-1.148c0.338-0.333,0.733-0.503,1.181-0.508C34.903,5.647,35.286,5.807,35.604,6.13z"/>
		<path fill="#CECFD0" d="M36.616,2.118c-0.005,0.603-0.219,1.111-0.641,1.522c-0.422,0.41-0.943,0.614-1.559,0.61
			c-0.601-0.005-1.103-0.207-1.504-0.608c-0.401-0.401-0.598-0.911-0.594-1.531C32.322,1.503,32.524,1,32.923,0.598
			c0.399-0.403,0.908-0.603,1.525-0.597c0.617,0.005,1.134,0.21,1.55,0.62C36.415,1.029,36.621,1.528,36.616,2.118z"/>
		<path fill="#CECFD0" d="M39.88,13.267c-0.004,0.329-0.115,0.6-0.334,0.811c-0.22,0.212-0.49,0.316-0.809,0.314
			c-0.318-0.002-0.586-0.114-0.804-0.333c-0.217-0.22-0.325-0.484-0.323-0.794c0.002-0.312,0.113-0.574,0.327-0.79
			c0.216-0.216,0.477-0.324,0.785-0.32c0.319,0.001,0.592,0.109,0.819,0.325C39.77,12.696,39.882,12.957,39.88,13.267z"/>
		<path fill="#CECFD0" d="M43.35,10.375c-0.004,0.465-0.168,0.856-0.493,1.171c-0.325,0.317-0.72,0.472-1.183,0.469
			c-0.463-0.004-0.851-0.162-1.166-0.477c-0.314-0.315-0.47-0.705-0.467-1.17c0.003-0.465,0.162-0.853,0.476-1.162
			c0.312-0.311,0.701-0.464,1.164-0.46c0.475,0.004,0.873,0.163,1.193,0.477C43.195,9.538,43.353,9.922,43.35,10.375z"/>
		<path fill="#CECFD0" d="M46.903,8.253c-0.43,0.424-0.94,0.632-1.53,0.624c-0.59-0.009-1.101-0.233-1.534-0.672
			c-0.422-0.428-0.632-0.927-0.634-1.493c0.001-0.567,0.221-1.068,0.664-1.502c0.431-0.426,0.93-0.639,1.496-0.641
			c0.567-0.004,1.068,0.215,1.501,0.656c0.433,0.44,0.652,0.951,0.657,1.535C47.529,7.343,47.323,7.841,46.903,8.253z"/>
		<path fill="#CECFD0" d="M28.89,13.185c-0.003,0.33,0.104,0.603,0.322,0.816c0.217,0.216,0.485,0.324,0.803,0.326
			c0.318,0.004,0.588-0.104,0.809-0.321c0.22-0.216,0.332-0.479,0.335-0.79c0.002-0.311-0.103-0.574-0.315-0.794
			c-0.212-0.22-0.472-0.331-0.781-0.334c-0.318-0.002-0.593,0.103-0.824,0.315C29.007,12.616,28.892,12.876,28.89,13.185z"/>
		<path fill="#CECFD0" d="M25.463,10.242c-0.004,0.465,0.154,0.857,0.475,1.178c0.32,0.321,0.713,0.484,1.175,0.487
			c0.464,0.003,0.856-0.15,1.175-0.46c0.319-0.31,0.479-0.696,0.484-1.162c0.004-0.465-0.149-0.855-0.458-1.17
			c-0.308-0.314-0.693-0.474-1.156-0.477c-0.476-0.003-0.877,0.15-1.202,0.46C25.63,9.407,25.467,9.789,25.463,10.242z"/>
		<path fill="#CECFD0" d="M21.942,8.067c0.423,0.431,0.931,0.646,1.52,0.647c0.589-0.001,1.103-0.216,1.543-0.648
			c0.428-0.423,0.647-0.918,0.656-1.484c0.009-0.567-0.205-1.071-0.641-1.513c-0.426-0.431-0.919-0.652-1.487-0.662
			c-0.566-0.012-1.07,0.199-1.509,0.633c-0.44,0.433-0.667,0.94-0.681,1.524C21.328,7.147,21.528,7.649,21.942,8.067z"/>
	</g>
</g>
</svg>
