<?xml version="1.0" encoding="utf-8"?>
<!-- Generator: Adobe Illustrator 17.0.0, SVG Export Plug-In . SVG Version: 6.00 Build 0)  -->
<!DOCTYPE svg PUBLIC "-//W3C//DTD SVG 1.1//EN" "http://www.w3.org/Graphics/SVG/1.1/DTD/svg11.dtd">
<svg version="1.1" id="Layer_1" xmlns="http://www.w3.org/2000/svg" xmlns:xlink="http://www.w3.org/1999/xlink" x="0px" y="0px"
	 width="33px" height="20px" viewBox="0 0 33 20" enable-background="new 0 0 33 20" xml:space="preserve">
<g>
	<g>
		<g>
			<path fill="#F2F2F2" d="M29.18,0H3.242C1.452,0,0,1.555,0,3.474v3.525h13.267c1.128-2.529,3.663-4.293,6.611-4.293
				s5.483,1.764,6.611,4.293h5.933V3.474C32.422,1.555,30.97,0,29.18,0z"/>
			<circle fill="#F2F2F2" cx="19.878" cy="9.943" r="4.776"/>
		</g>
	</g>
	<path fill="#F2F2F2" d="M27.061,9.083c0.034,0.282,0.054,0.568,0.054,0.859c0,3.997-3.24,7.237-7.237,7.237
		c-3.997,0-7.237-3.24-7.237-7.237c0-0.291,0.02-0.577,0.054-0.859H0v7.443C0,18.445,1.452,20,3.242,20H29.18
		c1.791,0,3.242-1.555,3.242-3.474V9.083H27.061z"/>
</g>
</svg>
