<?xml version="1.0" encoding="utf-8"?>
<!-- Generator: Adobe Illustrator 17.0.0, SVG Export Plug-In . SVG Version: 6.00 Build 0)  -->
<!DOCTYPE svg PUBLIC "-//W3C//DTD SVG 1.1//EN" "http://www.w3.org/Graphics/SVG/1.1/DTD/svg11.dtd">
<svg version="1.1" id="Layer_1" xmlns="http://www.w3.org/2000/svg" xmlns:xlink="http://www.w3.org/1999/xlink" x="0px" y="0px"
	 width="10px" height="13px" viewBox="0 0 10 13" enable-background="new 0 0 10 13" xml:space="preserve">
<path fill="#CCCBCB" d="M2.761,9.022V8.861c0-0.537,0.062-0.974,0.183-1.309c0.121-0.335,0.303-0.641,0.544-0.919
	C3.73,6.357,4.27,5.868,5.113,5.171C5.562,4.804,5.787,4.47,5.787,4.164c0-0.305-0.091-0.541-0.271-0.71
	C5.335,3.285,5.064,3.199,4.698,3.199c-0.394,0-0.72,0.132-0.976,0.392c-0.258,0.26-0.424,0.715-0.496,1.363L0,4.555
	c0.113-1.186,0.541-2.14,1.293-2.863c0.751-0.724,1.902-1.086,3.454-1.086c1.208,0,2.183,0.253,2.926,0.756
	c1.01,0.682,1.512,1.591,1.512,2.727c0,0.472-0.129,0.925-0.391,1.363c-0.26,0.439-0.792,0.973-1.596,1.604
	C6.639,7.501,6.286,7.858,6.14,8.125C6.011,8.361,5.938,8.66,5.922,9.022C5.921,9.073,2.761,9.022,2.761,9.022z M2.654,10.015h3.382
	V13H2.654V10.015z"/>
</svg>
