<?xml version="1.0" encoding="utf-8"?>
<!-- Generator: Adobe Illustrator 17.0.0, SVG Export Plug-In . SVG Version: 6.00 Build 0)  -->
<!DOCTYPE svg PUBLIC "-//W3C//DTD SVG 1.1//EN" "http://www.w3.org/Graphics/SVG/1.1/DTD/svg11.dtd">
<svg version="1.1" id="Layer_1" xmlns="http://www.w3.org/2000/svg" xmlns:xlink="http://www.w3.org/1999/xlink" x="0px" y="0px"
	 width="13px" height="15px" viewBox="0 0 13 15" enable-background="new 0 0 13 15" xml:space="preserve">
<path fill="#FFFFFF" d="M12.143,5.3c-0.484,0.321-0.972,0.641-1.457,0.963c0.358,0.668,0.576,1.42,0.576,2.229
	c0,2.632-2.141,4.773-4.772,4.773c-2.633,0-4.758-2.142-4.758-4.773c0-2.402,2.113-4.389,4.113-4.719v1.801l4.459-2.786L5.846,0
	v2.018c-3,0.339-5.849,3.107-5.849,6.474c0,3.595,2.907,6.509,6.5,6.509c3.594,0,6.505-2.914,6.505-6.509
	C13.003,7.327,12.678,6.245,12.143,5.3z"/>
</svg>
